<?xml version="1.0" standalone="no"?>
<!DOCTYPE svg PUBLIC "-//W3C//DTD SVG 20010904//EN"
 "http://www.w3.org/TR/2001/REC-SVG-20010904/DTD/svg10.dtd">
<svg version="1.0" xmlns="http://www.w3.org/2000/svg"
 width="1936.000000pt" height="1936.000000pt" viewBox="0 0 1936.000000 1936.000000"
 preserveAspectRatio="xMidYMid meet">
<metadata>
Created by potrace 1.11, written by Peter Selinger 2001-2013
</metadata>
<g transform="translate(0.000000,1936.000000) scale(0.100000,-0.100000)"
fill="#000000" stroke="none">
<path d="M3670 10305 l0 -1985 435 0 435 0 0 824 0 824 47 93 c40 80 61 109
147 194 143 143 270 205 417 205 185 0 315 -100 373 -289 20 -64 21 -91 24
-958 l3 -893 435 0 435 0 -4 1038 c-3 935 -5 1046 -20 1132 -58 316 -184 513
-408 639 -192 108 -504 132 -781 61 -241 -62 -490 -232 -623 -424 l-40 -58 -3
791 -2 791 -435 0 -435 0 0 -1985z"/>
<path d="M14823 10578 c3 -1621 4 -1717 21 -1783 70 -270 232 -429 504 -497
73 -19 115 -22 262 -22 191 1 298 15 485 63 100 26 275 87 275 96 0 13 -112
641 -115 643 -2 2 -32 -7 -67 -21 -207 -83 -391 -50 -457 82 -41 80 -41 91
-41 1646 l0 1505 -435 0 -435 0 3 -1712z"/>
<path d="M1450 12204 c-648 -80 -1100 -475 -1187 -1039 -20 -135 -13 -368 16
-482 40 -162 110 -281 232 -399 192 -184 410 -284 991 -454 382 -113 515 -167
623 -255 132 -109 128 -318 -8 -411 -158 -109 -509 -110 -875 -3 -292 86 -535
201 -747 354 -19 14 -27 0 -214 -372 l-194 -386 24 -18 c46 -35 235 -138 329
-179 284 -125 577 -209 895 -257 169 -25 616 -25 760 0 363 63 615 182 798
376 195 207 287 456 287 776 0 371 -127 640 -394 837 -169 124 -391 215 -814
334 -543 153 -625 185 -722 283 -67 67 -85 117 -78 219 11 158 106 244 306
279 105 18 298 13 417 -12 210 -43 529 -173 699 -285 43 -28 82 -48 86 -43 12
13 380 711 380 720 0 13 -269 154 -394 208 -196 83 -413 148 -636 190 -82 16
-495 29 -580 19z"/>
<path d="M12790 11630 l0 -450 -182 -2 -183 -3 -3 -327 -2 -328 182 -2 183 -3
5 -840 c6 -941 1 -881 82 -1044 86 -177 251 -295 478 -341 91 -19 128 -21 280
-17 187 5 277 19 450 69 154 44 362 121 367 135 8 22 -158 685 -171 679 -301
-131 -505 -125 -587 17 l-24 42 -3 653 -3 652 291 0 290 0 -2 328 -3 327 -287
3 -288 2 0 450 0 450 -435 0 -435 0 0 -450z"/>
<path d="M8180 11219 c-350 -40 -657 -185 -891 -418 -208 -209 -338 -460 -395
-766 -29 -152 -26 -462 5 -605 65 -306 186 -536 385 -736 160 -159 342 -270
565 -344 194 -65 270 -75 556 -74 221 0 262 3 355 23 571 122 980 508 1115
1050 36 146 46 232 46 398 0 633 -345 1150 -919 1377 -222 89 -549 126 -822
95z m351 -743 c111 -24 194 -71 284 -161 123 -123 181 -250 205 -451 36 -300
-71 -596 -270 -745 -74 -56 -118 -77 -207 -100 -305 -77 -605 84 -725 391 -41
103 -52 174 -53 330 0 177 16 252 87 399 83 173 215 285 390 331 87 23 198 25
289 6z"/>
<path d="M11945 11209 c-271 -44 -540 -245 -703 -523 l-47 -80 -3 287 -2 287
-398 -2 -397 -3 -3 -1427 -2 -1428 435 0 435 0 0 856 0 855 30 43 c134 196
430 324 818 352 l92 7 0 393 0 394 -102 -1 c-57 -1 -125 -5 -153 -10z"/>
<path d="M16350 11169 c0 -6 243 -649 540 -1429 l541 -1419 -16 -61 c-65 -252
-153 -385 -281 -425 -46 -14 -77 -17 -158 -12 -86 5 -247 38 -308 62 -17 7
-18 -15 -18 -364 l0 -372 35 -15 c60 -25 195 -53 307 -65 123 -12 295 1 412
31 323 82 598 310 741 613 26 54 1145 3439 1145 3463 0 2 -183 3 -407 2 l-408
-3 -276 -1023 c-152 -562 -280 -1035 -284 -1050 -5 -21 -8 -23 -15 -12 -4 8
-144 447 -310 975 -165 528 -312 995 -326 1038 l-26 77 -444 0 c-309 0 -444
-3 -444 -11z"/>
</g>
</svg>
